<mxfile host="www.draw.io" modified="2020-01-02T09:04:40.814Z" agent="Mozilla/5.0 (Macintosh; Intel Mac OS X 10_15_0) AppleWebKit/537.36 (KHTML, like Gecko) Chrome/79.0.3945.88 Safari/537.36" etag="tjawRZzZ4pnaxBXKdsMw" version="12.4.8" type="github" pages="3">
  <diagram id="i6vFmQsRjT_vgaygAgDD" name="Page-1">
    <mxGraphModel dx="1553" dy="727" grid="1" gridSize="10" guides="1" tooltips="1" connect="1" arrows="1" fold="1" page="1" pageScale="1" pageWidth="350" pageHeight="200" math="0" shadow="0">
      <root>
        <mxCell id="0"/>
        <mxCell id="1" parent="0"/>
        <mxCell id="681FL828cPBjvCGzYPSx-12" value="" style="rounded=1;whiteSpace=wrap;html=1;" parent="1" vertex="1">
          <mxGeometry x="20" y="20" width="540" height="330" as="geometry"/>
        </mxCell>
        <mxCell id="681FL828cPBjvCGzYPSx-15" value="" style="rounded=0;whiteSpace=wrap;html=1;" parent="1" vertex="1">
          <mxGeometry x="50" y="36" width="232" height="60" as="geometry"/>
        </mxCell>
        <mxCell id="681FL828cPBjvCGzYPSx-21" style="edgeStyle=orthogonalEdgeStyle;rounded=0;orthogonalLoop=1;jettySize=auto;html=1;startArrow=classic;startFill=1;endArrow=none;endFill=0;" parent="1" source="681FL828cPBjvCGzYPSx-23" target="vkNiQPZWl5WBSJmmG312-2" edge="1">
          <mxGeometry relative="1" as="geometry">
            <mxPoint x="172" y="66" as="sourcePoint"/>
            <mxPoint x="130" y="66" as="targetPoint"/>
          </mxGeometry>
        </mxCell>
        <mxCell id="681FL828cPBjvCGzYPSx-22" value="" style="rounded=0;whiteSpace=wrap;html=1;" parent="1" vertex="1">
          <mxGeometry x="317" y="75" width="185" height="220" as="geometry"/>
        </mxCell>
        <mxCell id="681FL828cPBjvCGzYPSx-44" style="edgeStyle=none;rounded=0;orthogonalLoop=1;jettySize=auto;html=1;exitX=1;exitY=0.5;exitDx=0;exitDy=0;startArrow=none;startFill=0;endArrow=classic;endFill=1;entryX=0.013;entryY=0.455;entryDx=0;entryDy=0;entryPerimeter=0;" parent="1" source="681FL828cPBjvCGzYPSx-15" target="681FL828cPBjvCGzYPSx-24" edge="1">
          <mxGeometry relative="1" as="geometry"/>
        </mxCell>
        <mxCell id="681FL828cPBjvCGzYPSx-23" value="Queue" style="rounded=1;whiteSpace=wrap;html=1;fillColor=#dae8fc;strokeColor=#6c8ebf;" parent="1" vertex="1">
          <mxGeometry x="170" y="51" width="95" height="30" as="geometry"/>
        </mxCell>
        <mxCell id="681FL828cPBjvCGzYPSx-48" style="edgeStyle=none;rounded=0;orthogonalLoop=1;jettySize=auto;html=1;exitX=1;exitY=0.5;exitDx=0;exitDy=0;entryX=0;entryY=0.5;entryDx=0;entryDy=0;startArrow=none;startFill=0;endArrow=classic;endFill=1;" parent="1" source="681FL828cPBjvCGzYPSx-24" target="681FL828cPBjvCGzYPSx-25" edge="1">
          <mxGeometry relative="1" as="geometry"/>
        </mxCell>
        <mxCell id="681FL828cPBjvCGzYPSx-24" value="Spark" style="rounded=1;whiteSpace=wrap;html=1;fillColor=#d5e8d4;strokeColor=#82b366;" parent="1" vertex="1">
          <mxGeometry x="327" y="86" width="75" height="198" as="geometry"/>
        </mxCell>
        <mxCell id="681FL828cPBjvCGzYPSx-49" style="edgeStyle=none;rounded=0;orthogonalLoop=1;jettySize=auto;html=1;exitX=0.5;exitY=1;exitDx=0;exitDy=0;entryX=0.5;entryY=0;entryDx=0;entryDy=0;startArrow=none;startFill=0;endArrow=classic;endFill=1;" parent="1" source="681FL828cPBjvCGzYPSx-25" target="681FL828cPBjvCGzYPSx-26" edge="1">
          <mxGeometry relative="1" as="geometry"/>
        </mxCell>
        <mxCell id="681FL828cPBjvCGzYPSx-25" value="BFT consensus" style="rounded=1;whiteSpace=wrap;html=1;fillColor=#e1d5e7;strokeColor=#9673a6;" parent="1" vertex="1">
          <mxGeometry x="410" y="86" width="82" height="84" as="geometry"/>
        </mxCell>
        <mxCell id="681FL828cPBjvCGzYPSx-51" style="edgeStyle=none;rounded=0;orthogonalLoop=1;jettySize=auto;html=1;exitX=1;exitY=0.5;exitDx=0;exitDy=0;startArrow=none;startFill=0;endArrow=classic;endFill=1;entryX=0;entryY=0.5;entryDx=0;entryDy=0;" parent="1" source="681FL828cPBjvCGzYPSx-26" edge="1" target="681FL828cPBjvCGzYPSx-50">
          <mxGeometry relative="1" as="geometry">
            <mxPoint x="520" y="162" as="targetPoint"/>
          </mxGeometry>
        </mxCell>
        <mxCell id="vkNiQPZWl5WBSJmmG312-19" style="edgeStyle=none;rounded=0;orthogonalLoop=1;jettySize=auto;html=1;exitX=1;exitY=0.5;exitDx=0;exitDy=0;entryX=0;entryY=0.5;entryDx=0;entryDy=0;" edge="1" parent="1" source="681FL828cPBjvCGzYPSx-26" target="vkNiQPZWl5WBSJmmG312-16">
          <mxGeometry relative="1" as="geometry"/>
        </mxCell>
        <mxCell id="vkNiQPZWl5WBSJmmG312-20" style="edgeStyle=none;rounded=0;orthogonalLoop=1;jettySize=auto;html=1;exitX=1;exitY=0.5;exitDx=0;exitDy=0;entryX=0;entryY=0.5;entryDx=0;entryDy=0;" edge="1" parent="1" source="681FL828cPBjvCGzYPSx-26" target="vkNiQPZWl5WBSJmmG312-17">
          <mxGeometry relative="1" as="geometry"/>
        </mxCell>
        <mxCell id="681FL828cPBjvCGzYPSx-26" value="Im-memmory&lt;br&gt;Database" style="rounded=1;whiteSpace=wrap;html=1;fillColor=#f5f5f5;strokeColor=#666666;fontColor=#333333;" parent="1" vertex="1">
          <mxGeometry x="410" y="190" width="82" height="86" as="geometry"/>
        </mxCell>
        <mxCell id="681FL828cPBjvCGzYPSx-45" style="edgeStyle=none;rounded=0;orthogonalLoop=1;jettySize=auto;html=1;exitX=1;exitY=0.5;exitDx=0;exitDy=0;entryX=0;entryY=0.5;entryDx=0;entryDy=0;startArrow=none;startFill=0;endArrow=classic;endFill=1;" parent="1" source="681FL828cPBjvCGzYPSx-28" target="681FL828cPBjvCGzYPSx-24" edge="1">
          <mxGeometry relative="1" as="geometry"/>
        </mxCell>
        <mxCell id="681FL828cPBjvCGzYPSx-28" value="" style="rounded=0;whiteSpace=wrap;html=1;" parent="1" vertex="1">
          <mxGeometry x="50" y="120" width="232" height="60" as="geometry"/>
        </mxCell>
        <mxCell id="681FL828cPBjvCGzYPSx-30" value="Queue" style="rounded=1;whiteSpace=wrap;html=1;fillColor=#dae8fc;strokeColor=#6c8ebf;" parent="1" vertex="1">
          <mxGeometry x="170" y="135" width="95" height="30" as="geometry"/>
        </mxCell>
        <mxCell id="681FL828cPBjvCGzYPSx-46" style="edgeStyle=none;rounded=0;orthogonalLoop=1;jettySize=auto;html=1;exitX=1;exitY=0.5;exitDx=0;exitDy=0;entryX=0;entryY=0.5;entryDx=0;entryDy=0;startArrow=none;startFill=0;endArrow=classic;endFill=1;" parent="1" source="681FL828cPBjvCGzYPSx-31" target="681FL828cPBjvCGzYPSx-24" edge="1">
          <mxGeometry relative="1" as="geometry"/>
        </mxCell>
        <mxCell id="681FL828cPBjvCGzYPSx-31" value="" style="rounded=0;whiteSpace=wrap;html=1;" parent="1" vertex="1">
          <mxGeometry x="50" y="200" width="232" height="60" as="geometry"/>
        </mxCell>
        <mxCell id="681FL828cPBjvCGzYPSx-33" value="Queue" style="rounded=1;whiteSpace=wrap;html=1;fillColor=#dae8fc;strokeColor=#6c8ebf;" parent="1" vertex="1">
          <mxGeometry x="170" y="216" width="98" height="28" as="geometry"/>
        </mxCell>
        <mxCell id="681FL828cPBjvCGzYPSx-47" style="edgeStyle=none;rounded=0;orthogonalLoop=1;jettySize=auto;html=1;exitX=1;exitY=0.5;exitDx=0;exitDy=0;startArrow=none;startFill=0;endArrow=classic;endFill=1;entryX=0;entryY=0.545;entryDx=0;entryDy=0;entryPerimeter=0;" parent="1" source="681FL828cPBjvCGzYPSx-34" target="681FL828cPBjvCGzYPSx-24" edge="1">
          <mxGeometry relative="1" as="geometry">
            <mxPoint x="322" y="130" as="targetPoint"/>
          </mxGeometry>
        </mxCell>
        <mxCell id="681FL828cPBjvCGzYPSx-34" value="" style="rounded=0;whiteSpace=wrap;html=1;" parent="1" vertex="1">
          <mxGeometry x="50" y="276" width="232" height="60" as="geometry"/>
        </mxCell>
        <mxCell id="681FL828cPBjvCGzYPSx-36" value="Queue" style="rounded=1;whiteSpace=wrap;html=1;fillColor=#dae8fc;strokeColor=#6c8ebf;" parent="1" vertex="1">
          <mxGeometry x="170" y="291" width="95" height="30" as="geometry"/>
        </mxCell>
        <mxCell id="681FL828cPBjvCGzYPSx-50" value="Endponint Server" style="rounded=1;whiteSpace=wrap;html=1;fillColor=#e1d5e7;strokeColor=#9673a6;" parent="1" vertex="1">
          <mxGeometry x="607" y="143" width="70" height="84" as="geometry"/>
        </mxCell>
        <mxCell id="vkNiQPZWl5WBSJmmG312-2" value="" style="pointerEvents=1;shadow=0;dashed=0;html=1;strokeColor=none;labelPosition=center;verticalLabelPosition=bottom;verticalAlign=top;outlineConnect=0;align=center;shape=mxgraph.office.concepts.node_generic;fillColor=#2072B8;" vertex="1" parent="1">
          <mxGeometry x="60" y="40" width="46" height="52" as="geometry"/>
        </mxCell>
        <mxCell id="vkNiQPZWl5WBSJmmG312-5" style="edgeStyle=orthogonalEdgeStyle;rounded=0;orthogonalLoop=1;jettySize=auto;html=1;startArrow=classic;startFill=1;endArrow=none;endFill=0;" edge="1" parent="1" target="vkNiQPZWl5WBSJmmG312-6" source="681FL828cPBjvCGzYPSx-30">
          <mxGeometry relative="1" as="geometry">
            <mxPoint x="172" y="150" as="sourcePoint"/>
            <mxPoint x="140" y="76" as="targetPoint"/>
          </mxGeometry>
        </mxCell>
        <mxCell id="vkNiQPZWl5WBSJmmG312-6" value="" style="pointerEvents=1;shadow=0;dashed=0;html=1;strokeColor=none;labelPosition=center;verticalLabelPosition=bottom;verticalAlign=top;outlineConnect=0;align=center;shape=mxgraph.office.concepts.node_generic;fillColor=#2072B8;" vertex="1" parent="1">
          <mxGeometry x="60" y="124" width="46" height="52" as="geometry"/>
        </mxCell>
        <mxCell id="vkNiQPZWl5WBSJmmG312-7" style="edgeStyle=orthogonalEdgeStyle;rounded=0;orthogonalLoop=1;jettySize=auto;html=1;startArrow=classic;startFill=1;endArrow=none;endFill=0;" edge="1" parent="1" target="vkNiQPZWl5WBSJmmG312-8" source="681FL828cPBjvCGzYPSx-33">
          <mxGeometry relative="1" as="geometry">
            <mxPoint x="172" y="230" as="sourcePoint"/>
            <mxPoint x="150" y="86" as="targetPoint"/>
          </mxGeometry>
        </mxCell>
        <mxCell id="vkNiQPZWl5WBSJmmG312-8" value="" style="pointerEvents=1;shadow=0;dashed=0;html=1;strokeColor=none;labelPosition=center;verticalLabelPosition=bottom;verticalAlign=top;outlineConnect=0;align=center;shape=mxgraph.office.concepts.node_generic;fillColor=#2072B8;" vertex="1" parent="1">
          <mxGeometry x="60" y="204" width="46" height="52" as="geometry"/>
        </mxCell>
        <mxCell id="vkNiQPZWl5WBSJmmG312-9" style="edgeStyle=orthogonalEdgeStyle;rounded=0;orthogonalLoop=1;jettySize=auto;html=1;startArrow=classic;startFill=1;endArrow=none;endFill=0;exitX=0;exitY=0.5;exitDx=0;exitDy=0;" edge="1" parent="1" target="vkNiQPZWl5WBSJmmG312-10" source="681FL828cPBjvCGzYPSx-36">
          <mxGeometry relative="1" as="geometry">
            <mxPoint x="160" y="306" as="sourcePoint"/>
            <mxPoint x="130" y="276" as="targetPoint"/>
          </mxGeometry>
        </mxCell>
        <mxCell id="vkNiQPZWl5WBSJmmG312-10" value="" style="pointerEvents=1;shadow=0;dashed=0;html=1;strokeColor=none;labelPosition=center;verticalLabelPosition=bottom;verticalAlign=top;outlineConnect=0;align=center;shape=mxgraph.office.concepts.node_generic;fillColor=#2072B8;" vertex="1" parent="1">
          <mxGeometry x="60" y="280" width="46" height="52" as="geometry"/>
        </mxCell>
        <mxCell id="vkNiQPZWl5WBSJmmG312-16" value="Endponint Server" style="rounded=1;whiteSpace=wrap;html=1;fillColor=#e1d5e7;strokeColor=#9673a6;" vertex="1" parent="1">
          <mxGeometry x="607" y="40" width="70" height="84" as="geometry"/>
        </mxCell>
        <mxCell id="vkNiQPZWl5WBSJmmG312-17" value="Endponint Server" style="rounded=1;whiteSpace=wrap;html=1;fillColor=#e1d5e7;strokeColor=#9673a6;" vertex="1" parent="1">
          <mxGeometry x="607" y="244" width="70" height="84" as="geometry"/>
        </mxCell>
      </root>
    </mxGraphModel>
  </diagram>
  <diagram id="veJRXVSCNNJHc_qGnkLZ" name="FindTransaction">
    <mxGraphModel dx="932" dy="485" grid="1" gridSize="10" guides="1" tooltips="1" connect="1" arrows="1" fold="1" page="1" pageScale="1" pageWidth="827" pageHeight="583" math="0" shadow="0">
      <root>
        <mxCell id="ae6wDremw9DVQ-cxXHJR-0"/>
        <mxCell id="ae6wDremw9DVQ-cxXHJR-1" parent="ae6wDremw9DVQ-cxXHJR-0"/>
        <mxCell id="-rt2nV5kwDxt7cvcG7Ui-5" value="2" style="edgeStyle=orthogonalEdgeStyle;rounded=0;orthogonalLoop=1;jettySize=auto;html=1;entryX=0;entryY=0.5;entryDx=0;entryDy=0;" edge="1" parent="ae6wDremw9DVQ-cxXHJR-1" source="GR8uf2fE3fUd_3rm4j1n-0" target="w8zdz12hipfJzYUl-boB-0">
          <mxGeometry relative="1" as="geometry">
            <Array as="points">
              <mxPoint x="310" y="222"/>
              <mxPoint x="310" y="222"/>
            </Array>
          </mxGeometry>
        </mxCell>
        <mxCell id="GR8uf2fE3fUd_3rm4j1n-0" value="Hive" style="rounded=1;whiteSpace=wrap;html=1;fillColor=#f5f5f5;strokeColor=#666666;fontColor=#333333;" vertex="1" parent="ae6wDremw9DVQ-cxXHJR-1">
          <mxGeometry x="210" y="179" width="70" height="86" as="geometry"/>
        </mxCell>
        <mxCell id="w8zdz12hipfJzYUl-boB-0" value="Endponint Server" style="rounded=1;whiteSpace=wrap;html=1;fillColor=#e1d5e7;strokeColor=#9673a6;" vertex="1" parent="ae6wDremw9DVQ-cxXHJR-1">
          <mxGeometry x="350" y="180" width="70" height="84" as="geometry"/>
        </mxCell>
        <mxCell id="-rt2nV5kwDxt7cvcG7Ui-4" value="1" style="edgeStyle=orthogonalEdgeStyle;rounded=0;orthogonalLoop=1;jettySize=auto;html=1;" edge="1" parent="ae6wDremw9DVQ-cxXHJR-1" source="-rt2nV5kwDxt7cvcG7Ui-3" target="GR8uf2fE3fUd_3rm4j1n-0">
          <mxGeometry relative="1" as="geometry"/>
        </mxCell>
        <mxCell id="-rt2nV5kwDxt7cvcG7Ui-3" value="Spark" style="rounded=1;whiteSpace=wrap;html=1;fillColor=#d5e8d4;strokeColor=#82b366;" vertex="1" parent="ae6wDremw9DVQ-cxXHJR-1">
          <mxGeometry x="70" y="179" width="70" height="86" as="geometry"/>
        </mxCell>
        <mxCell id="tdC7KX4eWJNShUsFPoAm-0" value="" style="endArrow=classic;html=1;" edge="1" parent="ae6wDremw9DVQ-cxXHJR-1">
          <mxGeometry width="50" height="50" relative="1" as="geometry">
            <mxPoint x="20" y="280" as="sourcePoint"/>
            <mxPoint x="70" y="230" as="targetPoint"/>
            <Array as="points">
              <mxPoint x="40" y="260"/>
            </Array>
          </mxGeometry>
        </mxCell>
        <mxCell id="tdC7KX4eWJNShUsFPoAm-1" value="" style="endArrow=classic;html=1;" edge="1" parent="ae6wDremw9DVQ-cxXHJR-1">
          <mxGeometry width="50" height="50" relative="1" as="geometry">
            <mxPoint x="10" y="222" as="sourcePoint"/>
            <mxPoint x="70" y="222" as="targetPoint"/>
            <Array as="points"/>
          </mxGeometry>
        </mxCell>
        <mxCell id="tdC7KX4eWJNShUsFPoAm-2" value="" style="endArrow=classic;html=1;entryX=-0.014;entryY=0.407;entryDx=0;entryDy=0;entryPerimeter=0;" edge="1" parent="ae6wDremw9DVQ-cxXHJR-1" target="-rt2nV5kwDxt7cvcG7Ui-3">
          <mxGeometry width="50" height="50" relative="1" as="geometry">
            <mxPoint x="30" y="180" as="sourcePoint"/>
            <mxPoint x="80" y="232" as="targetPoint"/>
            <Array as="points"/>
          </mxGeometry>
        </mxCell>
      </root>
    </mxGraphModel>
  </diagram>
  <diagram id="nmR0QhjOOpvsA1J85pWe" name="Page-3">
    <mxGraphModel dx="932" dy="485" grid="1" gridSize="10" guides="1" tooltips="1" connect="1" arrows="1" fold="1" page="1" pageScale="1" pageWidth="827" pageHeight="583" math="0" shadow="0">
      <root>
        <mxCell id="nrcQG8sgkvJu6hCw_vci-0"/>
        <mxCell id="nrcQG8sgkvJu6hCw_vci-1" parent="nrcQG8sgkvJu6hCw_vci-0"/>
        <mxCell id="nrcQG8sgkvJu6hCw_vci-2" value="" style="pointerEvents=1;shadow=0;dashed=0;html=1;strokeColor=none;labelPosition=center;verticalLabelPosition=bottom;verticalAlign=top;outlineConnect=0;align=center;shape=mxgraph.office.concepts.node_generic;fillColor=#2072B8;" vertex="1" parent="nrcQG8sgkvJu6hCw_vci-1">
          <mxGeometry x="122" y="130" width="46" height="52" as="geometry"/>
        </mxCell>
      </root>
    </mxGraphModel>
  </diagram>
</mxfile>
